<svg clip-rule="evenodd" fill-rule="evenodd" stroke-linecap="round" stroke-linejoin="round" stroke-miterlimit="1.5" viewBox="0 0 2010 512" xmlns="http://www.w3.org/2000/svg"><path d="m2077.92 430.71c-39.54 0-69.89-10.197-91.07-30.593-21.18-20.395-32.71-49.419-34.59-87.072-.32-4.532-.48-12.376-.48-23.533 0-11.156.16-19 .48-23.533 1.88-36.955 13.72-65.805 35.53-86.549 21.81-20.743 51.85-31.115 90.13-31.115s68.32 10.372 90.13 31.115c21.81 20.744 33.65 49.594 35.54 86.549.62 9.065.94 16.909.94 23.533 0 6.625-.32 14.469-.94 23.533-1.89 37.653-13.42 66.677-34.6 87.072-21.18 20.396-51.53 30.593-91.07 30.593zm484.31 0c-45.5 0-81.11-12.289-106.84-36.868s-39.38-59.704-40.95-105.375c-.31-9.762-.47-25.625-.47-47.589s.16-38.002.47-48.112c1.26-43.928 14.99-78.008 41.18-102.238 26.21-24.23 61.74-36.345 106.61-36.345 30.12 0 56.4 5.404 78.84 16.211 22.43 10.808 39.53 24.666 51.3 41.575 11.76 16.909 17.96 34.254 18.59 52.034 0 3.138-1.02 5.84-3.06 8.106s-4.47 3.399-7.3 3.399h-72.95c-3.14 0-5.57-.61-7.29-1.83-1.73-1.22-3.38-3.051-4.95-5.491-3.76-9.762-9.8-18.129-18.12-25.102-8.31-6.973-20-10.459-35.06-10.459-36.4 0-55.22 20.918-56.48 62.755-.31 9.761-.47 24.753-.47 44.974s.16 35.386.47 45.497c1.26 44.277 20.39 66.415 57.42 66.415 18.2 0 32.63-5.055 43.3-15.166 10.67-10.11 16-25.45 16-46.02v-9.413h-41.88c-3.46 0-6.36-1.307-8.71-3.922s-3.53-5.84-3.53-9.675v-40.79c0-3.835 1.18-7.06 3.53-9.675s5.25-3.922 8.71-3.922h119.54c3.45 0 6.36 1.307 8.71 3.922s3.53 5.84 3.53 9.675v60.663c0 29.634-6.2 55.171-18.59 76.612-12.39 21.442-29.89 37.828-52.48 49.158-22.59 11.331-48.95 16.996-79.07 16.996zm-860.73-5.229c-3.14 0-5.88-1.308-8.24-3.922-2.35-2.615-3.53-5.666-3.53-9.152v-339.398c0-3.835 1.1-7.06 3.3-9.675 2.19-2.614 5.02-3.922 8.47-3.922h63.07c3.45 0 6.27 1.308 8.47 3.922 2.2 2.615 3.29 5.84 3.29 9.675v114.004l83.31-117.142c3.45-6.972 9.57-10.459 18.36-10.459h72.01c2.51 0 4.78 1.133 6.82 3.399 2.04 2.267 3.06 4.794 3.06 7.583s-.63 4.881-1.88 6.276l-109.67 157.932 118.61 173.621c1.26 1.395 1.88 3.487 1.88 6.276s-1.02 5.316-3.06 7.582c-2.04 2.267-4.47 3.4-7.29 3.4h-73.9c-5.02 0-9.09-1.133-12.23-3.4-3.14-2.266-5.34-4.619-6.59-7.059l-89.43-127.601v124.986c0 3.486-1.09 6.537-3.29 9.152-2.2 2.614-5.02 3.922-8.47 3.922zm535.97 0c-3.13 0-5.88-1.308-8.23-3.922-2.35-2.615-3.53-5.666-3.53-9.152v-245.266c0-3.835 1.1-7.06 3.29-9.675 2.2-2.614 5.02-3.922 8.47-3.922h57.42c3.46 0 6.36 1.308 8.71 3.922 2.35 2.615 3.53 5.84 3.53 9.675v19.872c8.79-10.807 19.06-19.088 30.83-24.84 11.77-5.753 24.87-8.629 39.3-8.629h21.18c3.45 0 6.28 1.22 8.47 3.661 2.2 2.44 3.3 5.578 3.3 9.413v57.002c0 3.486-1.1 6.537-3.3 9.152-2.19 2.615-5.02 3.922-8.47 3.922h-47.54c-12.55 0-22.2 3.835-28.94 11.505-6.75 7.67-10.12 18.478-10.12 32.423v131.785c0 3.835-1.18 6.973-3.53 9.413-2.36 2.44-5.26 3.661-8.71 3.661zm515.38 0c-3.14 0-5.89-1.308-8.24-3.922-2.35-2.615-3.53-5.666-3.53-9.152v-339.398c0-3.835 1.1-7.06 3.29-9.675 2.2-2.614 5.02-3.922 8.48-3.922h222.15c3.45 0 6.35 1.308 8.7 3.922 2.36 2.615 3.54 5.84 3.54 9.675v51.773c0 3.835-1.18 6.972-3.54 9.413-2.35 2.44-5.25 3.661-8.7 3.661h-148.73v66.415h138.37c3.46 0 6.36 1.307 8.71 3.922s3.53 5.84 3.53 9.675v47.588c0 3.835-1.18 7.06-3.53 9.675s-5.25 3.922-8.71 3.922h-138.37v67.984h152.49c3.45 0 6.36 1.308 8.71 3.923 2.35 2.614 3.53 5.839 3.53 9.674v51.773c0 3.835-1.18 6.973-3.53 9.413s-5.26 3.661-8.71 3.661zm-674.93-60.663c12.87 0 22.44-4.445 28.71-13.335 6.28-8.891 9.88-22.575 10.83-41.052.31-3.487.47-10.459.47-20.919 0-10.459-.16-17.431-.47-20.918-.95-18.129-4.55-31.726-10.83-40.79-6.27-9.065-15.84-13.597-28.71-13.597-12.86 0-22.43 4.532-28.71 13.597-6.28 9.064-9.88 22.661-10.83 40.79l-.47 20.918.47 20.919c.95 18.477 4.55 32.161 10.83 41.052 6.28 8.89 15.85 13.335 28.71 13.335z" transform="translate(-1068.56 31.7477)"/><g transform="matrix(.565685 -.565685 .565685 .565685 252 239)"><g stroke="#000" transform="translate(0 40)"><circle cx="-100" cy="-150" r="72" stroke-width="70"/><circle cx="100" cy="-150" r="72" stroke-width="70"/><path d="m-220 0h440zm220 0-160 200zm0 0 160 200z" fill="none" stroke-width="100"/></g><circle cx="-100" cy="-150" fill="#fff" r="72" stroke="#fff" stroke-width="70"/><circle cx="-100" cy="-150" fill="none" r="72" stroke="#47009c" stroke-width="30"/><circle cx="-100" cy="-122" fill="#5800c3" r="32"/><circle cx="100" cy="-150" fill="#fff" r="72" stroke="#fff" stroke-width="70"/><circle cx="100" cy="-150" fill="#fff" r="72" stroke="#47009c" stroke-width="30"/><circle cx="100" cy="-122" fill="#5800c3" r="32"/><g fill="none"><path d="m-220 0h440zm220 0-160 200zm0 0 160 200z" stroke="#fff" stroke-width="120"/><path d="m-220 0h440zm220 0-160 200zm0 0 160 200z" stroke="#47009c" stroke-width="60"/></g></g><g transform="translate(-1100)"><path d="m2077.92 430.71c-39.54 0-69.89-10.197-91.07-30.593-21.18-20.395-32.71-49.419-34.59-87.072-.32-4.532-.48-12.376-.48-23.533 0-11.156.16-19 .48-23.533 1.88-36.955 13.72-65.805 35.53-86.549 21.81-20.743 51.85-31.115 90.13-31.115s68.32 10.372 90.13 31.115c21.81 20.744 33.65 49.594 35.54 86.549.62 9.065.94 16.909.94 23.533 0 6.625-.32 14.469-.94 23.533-1.89 37.653-13.42 66.677-34.6 87.072-21.18 20.396-51.53 30.593-91.07 30.593zm484.31 0c-45.5 0-81.11-12.289-106.84-36.868s-39.38-59.704-40.95-105.375c-.31-9.762-.47-25.625-.47-47.589s.16-38.002.47-48.112c1.26-43.928 14.99-78.008 41.18-102.238 26.21-24.23 61.74-36.345 106.61-36.345 30.12 0 56.4 5.404 78.84 16.211 22.43 10.808 39.53 24.666 51.3 41.575 11.76 16.909 17.96 34.254 18.59 52.034 0 3.138-1.02 5.84-3.06 8.106s-4.47 3.399-7.3 3.399h-72.95c-3.14 0-5.57-.61-7.29-1.83-1.73-1.22-3.38-3.051-4.95-5.491-3.76-9.762-9.8-18.129-18.12-25.102-8.31-6.973-20-10.459-35.06-10.459-36.4 0-55.22 20.918-56.48 62.755-.31 9.761-.47 24.753-.47 44.974s.16 35.386.47 45.497c1.26 44.277 20.39 66.415 57.42 66.415 18.2 0 32.63-5.055 43.3-15.166 10.67-10.11 16-25.45 16-46.02v-9.413h-41.88c-3.46 0-6.36-1.307-8.71-3.922s-3.53-5.84-3.53-9.675v-40.79c0-3.835 1.18-7.06 3.53-9.675s5.25-3.922 8.71-3.922h119.54c3.45 0 6.36 1.307 8.71 3.922s3.53 5.84 3.53 9.675v60.663c0 29.634-6.2 55.171-18.59 76.612-12.39 21.442-29.89 37.828-52.48 49.158-22.59 11.331-48.95 16.996-79.07 16.996zm-860.73-5.229c-3.14 0-5.88-1.308-8.24-3.922-2.35-2.615-3.53-5.666-3.53-9.152v-339.398c0-3.835 1.1-7.06 3.3-9.675 2.19-2.614 5.02-3.922 8.47-3.922h63.07c3.45 0 6.27 1.308 8.47 3.922 2.2 2.615 3.29 5.84 3.29 9.675v114.004l83.31-117.142c3.45-6.972 9.57-10.459 18.36-10.459h72.01c2.51 0 4.78 1.133 6.82 3.399 2.04 2.267 3.06 4.794 3.06 7.583s-.63 4.881-1.88 6.276l-109.67 157.932 118.61 173.621c1.26 1.395 1.88 3.487 1.88 6.276s-1.02 5.316-3.06 7.582c-2.04 2.267-4.47 3.4-7.29 3.4h-73.9c-5.02 0-9.09-1.133-12.23-3.4-3.14-2.266-5.34-4.619-6.59-7.059l-89.43-127.601v124.986c0 3.486-1.09 6.537-3.29 9.152-2.2 2.614-5.02 3.922-8.47 3.922zm535.97 0c-3.13 0-5.88-1.308-8.23-3.922-2.35-2.615-3.53-5.666-3.53-9.152v-245.266c0-3.835 1.1-7.06 3.29-9.675 2.2-2.614 5.02-3.922 8.47-3.922h57.42c3.46 0 6.36 1.308 8.71 3.922 2.35 2.615 3.53 5.84 3.53 9.675v19.872c8.79-10.807 19.06-19.088 30.83-24.84 11.77-5.753 24.87-8.629 39.3-8.629h21.18c3.45 0 6.28 1.22 8.47 3.661 2.2 2.44 3.3 5.578 3.3 9.413v57.002c0 3.486-1.1 6.537-3.3 9.152-2.19 2.615-5.02 3.922-8.47 3.922h-47.54c-12.55 0-22.2 3.835-28.94 11.505-6.75 7.67-10.12 18.478-10.12 32.423v131.785c0 3.835-1.18 6.973-3.53 9.413-2.36 2.44-5.26 3.661-8.71 3.661zm515.38 0c-3.14 0-5.89-1.308-8.24-3.922-2.35-2.615-3.53-5.666-3.53-9.152v-339.398c0-3.835 1.1-7.06 3.29-9.675 2.2-2.614 5.02-3.922 8.48-3.922h222.15c3.45 0 6.35 1.308 8.7 3.922 2.36 2.615 3.54 5.84 3.54 9.675v51.773c0 3.835-1.18 6.972-3.54 9.413-2.35 2.44-5.25 3.661-8.7 3.661h-148.73v66.415h138.37c3.46 0 6.36 1.307 8.71 3.922s3.53 5.84 3.53 9.675v47.588c0 3.835-1.18 7.06-3.53 9.675s-5.25 3.922-8.71 3.922h-138.37v67.984h152.49c3.45 0 6.36 1.308 8.71 3.923 2.35 2.614 3.53 5.839 3.53 9.674v51.773c0 3.835-1.18 6.973-3.53 9.413s-5.26 3.661-8.71 3.661zm-674.93-60.663c12.87 0 22.44-4.445 28.71-13.335 6.28-8.891 9.88-22.575 10.83-41.052.31-3.487.47-10.459.47-20.919 0-10.459-.16-17.431-.47-20.918-.95-18.129-4.55-31.726-10.83-40.79-6.27-9.065-15.84-13.597-28.71-13.597-12.86 0-22.43 4.532-28.71 13.597-6.28 9.064-9.88 22.661-10.83 40.79l-.47 20.918.47 20.919c.95 18.477 4.55 32.161 10.83 41.052 6.28 8.89 15.85 13.335 28.71 13.335z" fill="#47009c"/><path d="m2077.92 430.71c-39.54 0-69.89-10.197-91.07-30.593-21.18-20.395-32.71-49.419-34.59-87.072-.32-4.532-.48-12.376-.48-23.533 0-11.156.16-19 .48-23.533 1.88-36.955 13.72-65.805 35.53-86.549 21.81-20.743 51.85-31.115 90.13-31.115s68.32 10.372 90.13 31.115c21.81 20.744 33.65 49.594 35.54 86.549.62 9.065.94 16.909.94 23.533 0 6.625-.32 14.469-.94 23.533-1.89 37.653-13.42 66.677-34.6 87.072-21.18 20.396-51.53 30.593-91.07 30.593zm484.31 0c-45.5 0-81.11-12.289-106.84-36.868s-39.38-59.704-40.95-105.375c-.31-9.762-.47-25.625-.47-47.589s.16-38.002.47-48.112c1.26-43.928 14.99-78.008 41.18-102.238 26.21-24.23 61.74-36.345 106.61-36.345 30.12 0 56.4 5.404 78.84 16.211 22.43 10.808 39.53 24.666 51.3 41.575 11.76 16.909 17.96 34.254 18.59 52.034 0 3.138-1.02 5.84-3.06 8.106s-4.47 3.399-7.3 3.399h-72.95c-3.14 0-5.57-.61-7.29-1.83-1.73-1.22-3.38-3.051-4.95-5.491-3.76-9.762-9.8-18.129-18.12-25.102-8.31-6.973-20-10.459-35.06-10.459-36.4 0-55.22 20.918-56.48 62.755-.31 9.761-.47 24.753-.47 44.974s.16 35.386.47 45.497c1.26 44.277 20.39 66.415 57.42 66.415 18.2 0 32.63-5.055 43.3-15.166 10.67-10.11 16-25.45 16-46.02v-9.413h-41.88c-3.46 0-6.36-1.307-8.71-3.922s-3.53-5.84-3.53-9.675v-40.79c0-3.835 1.18-7.06 3.53-9.675s5.25-3.922 8.71-3.922h119.54c3.45 0 6.36 1.307 8.71 3.922s3.53 5.84 3.53 9.675v60.663c0 29.634-6.2 55.171-18.59 76.612-12.39 21.442-29.89 37.828-52.48 49.158-22.59 11.331-48.95 16.996-79.07 16.996zm-860.73-5.229c-3.14 0-5.88-1.308-8.24-3.922-2.35-2.615-3.53-5.666-3.53-9.152v-339.398c0-3.835 1.1-7.06 3.3-9.675 2.19-2.614 5.02-3.922 8.47-3.922h63.07c3.45 0 6.27 1.308 8.47 3.922 2.2 2.615 3.29 5.84 3.29 9.675v114.004l83.31-117.142c3.45-6.972 9.57-10.459 18.36-10.459h72.01c2.51 0 4.78 1.133 6.82 3.399 2.04 2.267 3.06 4.794 3.06 7.583s-.63 4.881-1.88 6.276l-109.67 157.932 118.61 173.621c1.26 1.395 1.88 3.487 1.88 6.276s-1.02 5.316-3.06 7.582c-2.04 2.267-4.47 3.4-7.29 3.4h-73.9c-5.02 0-9.09-1.133-12.23-3.4-3.14-2.266-5.34-4.619-6.59-7.059l-89.43-127.601v124.986c0 3.486-1.09 6.537-3.29 9.152-2.2 2.614-5.02 3.922-8.47 3.922zm535.97 0c-3.13 0-5.88-1.308-8.23-3.922-2.35-2.615-3.53-5.666-3.53-9.152v-245.266c0-3.835 1.1-7.06 3.29-9.675 2.2-2.614 5.02-3.922 8.47-3.922h57.42c3.46 0 6.36 1.308 8.71 3.922 2.35 2.615 3.53 5.84 3.53 9.675v19.872c8.79-10.807 19.06-19.088 30.83-24.84 11.77-5.753 24.87-8.629 39.3-8.629h21.18c3.45 0 6.28 1.22 8.47 3.661 2.2 2.44 3.3 5.578 3.3 9.413v57.002c0 3.486-1.1 6.537-3.3 9.152-2.19 2.615-5.02 3.922-8.47 3.922h-47.54c-12.55 0-22.2 3.835-28.94 11.505-6.75 7.67-10.12 18.478-10.12 32.423v131.785c0 3.835-1.18 6.973-3.53 9.413-2.36 2.44-5.26 3.661-8.71 3.661zm515.38 0c-3.14 0-5.89-1.308-8.24-3.922-2.35-2.615-3.53-5.666-3.53-9.152v-339.398c0-3.835 1.1-7.06 3.29-9.675 2.2-2.614 5.02-3.922 8.48-3.922h222.15c3.45 0 6.35 1.308 8.7 3.922 2.36 2.615 3.54 5.84 3.54 9.675v51.773c0 3.835-1.18 6.972-3.54 9.413-2.35 2.44-5.25 3.661-8.7 3.661h-148.73v66.415h138.37c3.46 0 6.36 1.307 8.71 3.922s3.53 5.84 3.53 9.675v47.588c0 3.835-1.18 7.06-3.53 9.675s-5.25 3.922-8.71 3.922h-138.37v67.984h152.49c3.45 0 6.36 1.308 8.71 3.923 2.35 2.614 3.53 5.839 3.53 9.674v51.773c0 3.835-1.18 6.973-3.53 9.413s-5.26 3.661-8.71 3.661zm-674.93-60.663c12.87 0 22.44-4.445 28.71-13.335 6.28-8.891 9.88-22.575 10.83-41.052.31-3.487.47-10.459.47-20.919 0-10.459-.16-17.431-.47-20.918-.95-18.129-4.55-31.726-10.83-40.79-6.27-9.065-15.84-13.597-28.71-13.597-12.86 0-22.43 4.532-28.71 13.597-6.28 9.064-9.88 22.661-10.83 40.79l-.47 20.918.47 20.919c.95 18.477 4.55 32.161 10.83 41.052 6.28 8.89 15.85 13.335 28.71 13.335z" fill="#47009c"/><path d="m1935.76 330.663c-.69-5.322-1.18-10.819-1.46-16.491-.34-4.797-.52-13.017-.52-24.66 0-11.608.18-19.813.51-24.587 2.17-42.156 16.2-74.863 41.09-98.538 24.87-23.646 58.9-36.072 102.54-36.072s77.67 12.426 102.53 36.072c11.4 10.834 20.51 23.56 27.26 38.216v-37.462c0-8.449 2.67-15.471 7.49-21.232.01-.011.02-.022.03-.034 5.78-6.868 13.18-10.331 22.24-10.331h57.42c8.77 0 16.14 3.264 22.1 9.888v.003c1.56 1.733 2.9 3.58 4.03 5.543 2.93-1.804 5.94-3.463 9.04-4.977 14.14-6.913 29.86-10.457 47.2-10.457h21.18c2.56 0 4.99.273 7.28.811 7.81-23.448 20.44-43.097 37.68-59.04v-.004c29.26-27.051 68.74-41.128 118.83-41.128 33.12 0 61.98 6.111 86.65 17.994v.001c25.54 12.305 44.86 28.257 58.26 47.508l.01.005c7.02 10.093 12.31 20.336 15.93 30.71v-59.392c0-8.449 2.66-15.471 7.49-21.232.01-.011.02-.022.03-.034 5.78-6.863 13.16-10.331 22.25-10.331h222.15c8.74 0 16.12 3.256 22.08 9.877 5.31 5.892 8.16 13.083 8.16 21.72v51.773c0 8.974-3.07 16.197-8.59 21.912-5.85 6.074-13.06 9.162-21.65 9.162h-130.73v30.415h120.37c8.77 0 16.14 3.263 22.1 9.891 5.29 5.886 8.14 13.073 8.14 21.706v47.588c0 8.633-2.85 15.82-8.14 21.706-5.96 6.628-13.33 9.891-22.1 9.891h-120.37v31.984h134.49c8.74 0 16.14 3.264 22.1 9.89 5.29 5.885 8.14 13.073 8.14 21.707v51.773c0 8.97-3.07 16.192-8.57 21.9-5.85 6.078-13.08 9.174-21.67 9.174h-225.91c-8.18 0-15.5-3.077-21.63-9.888v-.003c-5.44-6.05-8.14-13.118-8.14-21.183v-70.913c-3.4 11.468-7.99 22.155-13.71 32.068-14.17 24.521-34.17 43.284-60 56.242-24.91 12.492-53.93 18.906-87.14 18.906-50.89 0-90.5-14.363-119.27-41.852-28.82-27.53-44.75-66.62-46.51-117.773 0-.015 0-.031 0-.047-.25-7.698-.4-19.146-.46-34.344h-45.09c-6.58 0-11.88 1.364-15.42 5.387l-.01.01c-4.23 4.807-5.63 11.79-5.63 20.531v131.785c0 8.97-3.07 16.192-8.56 21.9-.01.009-.02.018-.03.027-5.87 6.069-13.07 9.147-21.65 9.147h-62.13c-8.16 0-15.49-3.072-21.62-9.888v-.003c-5.44-6.05-8.14-13.118-8.14-21.183v-36.705c-6.56 14.442-15.34 26.888-26.23 37.381-24.15 23.249-58.49 35.627-103.56 35.627-38.43 0-69.06-9-92.22-26.068-1.2 4.083-3.35 7.922-6.55 11.481-5.76 6.394-12.72 9.358-20.67 9.358h-73.9c-9.4 0-16.89-2.562-22.76-6.805-5.31-3.831-8.98-7.988-11.35-12.114l-56.14-80.096v67.941c0 7.907-2.53 14.808-7.52 20.74v.003c-5.78 6.868-13.18 10.331-22.24 10.331h-63.07c-8.17 0-15.46-3.058-21.6-9.86-.01-.01-.02-.02-.03-.031-5.44-6.05-8.14-13.118-8.14-21.183v-339.398c0-8.453 2.67-15.478 7.51-21.245 5.76-6.871 13.19-10.352 22.26-10.352h63.07c9.06 0 16.46 3.463 22.24 10.331v.003c4.86 5.771 7.52 12.8 7.52 21.263v57.636s49.91-70.182 49.91-70.177c6.64-12.333 17.68-19.056 33.76-19.056h72.01c7.33 0 14.24 2.736 20.2 9.356v.003c5.26 5.842 7.68 12.436 7.68 19.623 0 7.543-2.31 13.117-5.53 17.165l-102.16 147.126s34.88 51.066 65.56 95.978zm787.32-124.104v-24.591c-.56.745-1.16 1.473-1.8 2.184-5.75 6.387-12.7 9.356-20.68 9.356h-72.95c-7.7 0-13.48-2.153-17.7-5.143-3.33-2.355-6.65-5.742-9.68-10.438-.66-1.031-1.22-2.127-1.66-3.27-2.66-6.923-6.98-12.831-12.88-17.776l-.01-.007c-5.52-4.633-13.48-6.248-23.49-6.248-12.2 0-21.73 2.721-28.04 9.729-7.06 7.846-9.98 19.876-10.45 35.568v.029c-.31 9.637-.46 24.439-.46 44.403 0 19.976.15 34.957.46 44.945v.04c.57 19.8 4.49 34.186 14.65 42.106 6.25 4.869 14.6 6.821 24.78 6.821 12.92 0 23.34-3.054 30.92-10.232 6.01-5.691 9.02-13.92 10-24.367h-23.5c-8.77 0-16.14-3.263-22.1-9.891-5.29-5.886-8.14-13.073-8.14-21.706v-40.79c0-8.633 2.85-15.82 8.14-21.706 5.96-6.628 13.33-9.891 22.1-9.891h119.54c8.74 0 16.14 3.263 22.1 9.891.29.324.57.652.85.984zm-485.61 218.922h62.13c3.45 0 6.35-1.221 8.71-3.661 2.35-2.44 3.53-5.578 3.53-9.413v-131.785c0-13.945 3.37-24.753 10.12-32.423 6.74-7.67 16.39-11.505 28.94-11.505h47.54c3.45 0 6.28-1.307 8.47-3.922 2.2-2.615 3.3-5.666 3.3-9.152v-57.002c0-3.835-1.1-6.973-3.3-9.413-2.19-2.441-5.02-3.661-8.47-3.661h-21.18c-14.43 0-27.53 2.876-39.3 8.629-11.77 5.752-22.04 14.033-30.83 24.84v-19.872c0-3.835-1.18-7.06-3.53-9.675-2.35-2.614-5.25-3.922-8.71-3.922h-57.42c-3.45 0-6.27 1.308-8.47 3.922-2.19 2.615-3.29 5.84-3.29 9.675v245.266c0 3.486 1.18 6.537 3.53 9.152 2.35 2.614 5.1 3.922 8.23 3.922zm515.38 0h225.91c3.45 0 6.36-1.221 8.71-3.661s3.53-5.578 3.53-9.413v-51.773c0-3.835-1.18-7.06-3.53-9.674-2.35-2.615-5.26-3.923-8.71-3.923h-152.49v-67.984h138.37c3.46 0 6.36-1.307 8.71-3.922s3.53-5.84 3.53-9.675v-47.588c0-3.835-1.18-7.06-3.53-9.675s-5.25-3.922-8.71-3.922h-138.37v-66.415h148.73c3.45 0 6.35-1.221 8.7-3.661 2.36-2.441 3.54-5.578 3.54-9.413v-51.773c0-3.835-1.18-7.06-3.54-9.675-2.35-2.614-5.25-3.922-8.7-3.922h-222.15c-3.46 0-6.28 1.308-8.48 3.922-2.19 2.615-3.29 5.84-3.29 9.675v339.398c0 3.486 1.18 6.537 3.53 9.152 2.35 2.614 5.1 3.922 8.24 3.922zm-190.62 5.229c30.12 0 56.48-5.665 79.07-16.996 22.59-11.33 40.09-27.716 52.48-49.158 12.39-21.441 18.59-46.978 18.59-76.612v-60.663c0-3.835-1.18-7.06-3.53-9.675s-5.26-3.922-8.71-3.922h-119.54c-3.46 0-6.36 1.307-8.71 3.922s-3.53 5.84-3.53 9.675v40.79c0 3.835 1.18 7.06 3.53 9.675s5.25 3.922 8.71 3.922h41.88v9.413c0 20.57-5.33 35.91-16 46.02-10.67 10.111-25.1 15.166-43.3 15.166-37.03 0-56.16-22.138-57.42-66.415-.31-10.111-.47-25.276-.47-45.497s.16-35.213.47-44.974c1.26-41.837 20.08-62.755 56.48-62.755 15.06 0 26.75 3.486 35.06 10.459 8.32 6.973 14.36 15.34 18.12 25.102 1.57 2.44 3.22 4.271 4.95 5.491 1.72 1.22 4.15 1.83 7.29 1.83h72.95c2.83 0 5.26-1.133 7.3-3.399s3.06-4.968 3.06-8.106c-.63-17.78-6.83-35.125-18.59-52.034-11.77-16.909-28.87-30.767-51.3-41.575-22.44-10.807-48.72-16.211-78.84-16.211-44.87 0-80.4 12.115-106.61 36.345-26.19 24.23-39.92 58.31-41.18 102.238-.31 10.11-.47 26.148-.47 48.112s.16 37.827.47 47.589c1.57 45.671 15.22 80.796 40.95 105.375s61.34 36.868 106.84 36.868zm-860.73-5.229h63.07c3.45 0 6.27-1.308 8.47-3.922 2.2-2.615 3.29-5.666 3.29-9.152v-124.986l89.43 127.601c1.25 2.44 3.45 4.793 6.59 7.059 3.14 2.267 7.21 3.4 12.23 3.4h73.9c2.82 0 5.25-1.133 7.29-3.4 2.04-2.266 3.06-4.793 3.06-7.582s-.62-4.881-1.88-6.276l-118.61-173.621 109.67-157.932c1.25-1.395 1.88-3.487 1.88-6.276s-1.02-5.316-3.06-7.583c-2.04-2.266-4.31-3.399-6.82-3.399h-72.01c-8.79 0-14.91 3.487-18.36 10.459l-83.31 117.142v-114.004c0-3.835-1.09-7.06-3.29-9.675-2.2-2.614-5.02-3.922-8.47-3.922h-63.07c-3.45 0-6.28 1.308-8.47 3.922-2.2 2.615-3.3 5.84-3.3 9.675v339.398c0 3.486 1.18 6.537 3.53 9.152 2.36 2.614 5.1 3.922 8.24 3.922zm376.42 5.229c39.54 0 69.89-10.197 91.07-30.593 21.18-20.395 32.71-49.419 34.6-87.072.62-9.064.94-16.908.94-23.533 0-6.624-.32-14.468-.94-23.533-1.89-36.955-13.73-65.805-35.54-86.549-21.81-20.743-51.85-31.115-90.13-31.115s-68.32 10.372-90.13 31.115c-21.81 20.744-33.65 49.594-35.53 86.549-.32 4.533-.48 12.377-.48 23.533 0 11.157.16 19.001.48 23.533 1.88 37.653 13.41 66.677 34.59 87.072 21.18 20.396 51.53 30.593 91.07 30.593zm0-65.892c-12.86 0-22.43-4.445-28.71-13.335-6.28-8.891-9.88-22.575-10.83-41.052l-.47-20.919.47-20.918c.95-18.129 4.55-31.726 10.83-40.79 6.28-9.065 15.85-13.597 28.71-13.597 12.87 0 22.44 4.532 28.71 13.597 6.28 9.064 9.88 22.661 10.83 40.79.31 3.487.47 10.459.47 20.918 0 10.46-.16 17.432-.47 20.919-.95 18.477-4.55 32.161-10.83 41.052-6.27 8.89-15.84 13.335-28.71 13.335zm0-18c6.15 0 11.01-1.463 14-5.709l.01-.011c4.8-6.802 6.83-17.455 7.55-31.591.01-.224.03-.447.05-.67.29-3.221.4-9.662.4-19.325 0-9.662-.11-16.103-.4-19.324-.02-.217-.03-.434-.04-.652-.73-13.917-2.83-24.523-7.66-31.481v-.012c-2.98-4.303-7.8-5.836-13.91-5.836s-10.93 1.541-13.91 5.848c-4.79 6.914-6.9 17.432-7.64 31.22l-.46 20.237s.46 20.247.46 20.272c.74 13.998 2.77 24.556 7.54 31.314 3 4.249 7.86 5.72 14.01 5.72z" fill="#fff"/></g></svg>