<svg version="1.1" xmlns="http://www.w3.org/2000/svg" viewBox="0 0 659.1595727832336 377.02734375" width="1318.3191455664671" height="754.0546875" filter="invert(93%) hue-rotate(180deg)">
  <!-- svg-source:excalidraw -->
  
  <defs>
    <style>
      @font-face {
        font-family: "Virgil";
        src: url("https://excalidraw.com/Virgil.woff2");
      }
      @font-face {
        font-family: "Cascadia";
        src: url("https://excalidraw.com/Cascadia.woff2");
      }
    </style>
  </defs>
  <g stroke-linecap="round" transform="translate(73.98769778323356 103.0546875) rotate(0 134 23.5)"><path d="M1.16 -0.19 C76.09 2.28, 153.03 1.74, 269.54 1.26 M-0.78 0.63 C92.97 -0.37, 186.07 -0.48, 268.24 0.34 M269.89 -1.43 C267.42 11.67, 266.51 24.32, 269.67 47.56 M268.12 -0.56 C266.87 18.69, 268.47 36.57, 268.22 47.17 M269.44 47.75 C174.84 45.24, 81.39 48.18, -1.17 47.42 M268.2 46.9 C205.42 47.64, 142.35 48.7, 0.18 46.54 M1.43 46.77 C-1.31 27.38, -0.28 9.88, 1.19 1.15 M-0.83 47.28 C-0.44 31.95, 0.17 15.85, 0.51 -0.28" stroke="#000000" stroke-width="1" fill="none"></path></g><g transform="translate(78.98769778323356 114.0546875) rotate(0 129 12.5)"><text x="129" y="18" font-family="Virgil, Segoe UI Emoji" font-size="20px" fill="#000000" text-anchor="middle" style="white-space: pre;" direction="ltr">KorGE Game</text></g><g stroke-linecap="round" transform="translate(75.18886965823356 151.87890625) rotate(0 134 21)"><path d="M-0.99 1.41 C68.27 1.14, 140.32 1.52, 268.74 -0.07 M267.92 -0.82 C267.77 11.58, 268.19 26.23, 266.86 42.48 M267.46 42.19 C171.6 41.64, 79.03 40.93, 1.43 41.55 M-1.99 42.63 C1.15 30.87, 0.38 20.76, 1.02 1.52" stroke="#000000" stroke-width="1.5" fill="none" stroke-dasharray="8 9"></path></g><g transform="translate(80.18886965823356 160.37890625) rotate(0 129 12.5)"><text x="129" y="18" font-family="Virgil, Segoe UI Emoji" font-size="20px" fill="#000000" text-anchor="middle" style="white-space: pre;" direction="ltr">JVM Agent</text></g><g stroke-linecap="round" transform="translate(135.47597903323356 282.02734375) rotate(0 168.5 42.5)"><path d="M-1.18 -0.86 C102.72 -0.11, 206.63 -0.05, 336.22 -0.34 M338.92 0.47 C336.45 21.38, 337.79 42.77, 337.37 85.32 M336.01 83.97 C224.86 85.37, 112.27 87.04, -0.43 84.49 M-1.79 83.08 C-1.01 52.01, -1.99 20.1, -1.87 0.42" stroke="#000000" stroke-width="1.5" fill="none" stroke-dasharray="8 9"></path></g><g transform="translate(140.47597903323356 287.02734375) rotate(0 163.5 37.5)"><text x="163.5" y="18" font-family="Virgil, Segoe UI Emoji" font-size="20px" fill="#000000" text-anchor="middle" style="white-space: pre;" direction="ltr">./gradlew -t </text><text x="163.5" y="43" font-family="Virgil, Segoe UI Emoji" font-size="20px" fill="#000000" text-anchor="middle" style="white-space: pre;" direction="ltr">--configuration-cache </text><text x="163.5" y="68" font-family="Virgil, Segoe UI Emoji" font-size="20px" fill="#000000" text-anchor="middle" style="white-space: pre;" direction="ltr">compileKotlinJvmAndNotify</text></g><g stroke-linecap="round" transform="translate(490.52676028323356 116.86328125) rotate(0 79 21)"><path d="M1.76 -2 C57.94 0.6, 118.19 -0.64, 157.27 -1.48 M0.84 0.22 C42.45 0.23, 86.22 0.2, 157.29 -0.98 M157.89 0.04 C158.22 14.05, 157.04 27.97, 156.24 41.56 M158.86 -0.26 C157.92 15.17, 157.52 30.19, 157.94 41.91 M158.65 43.74 C122.68 40.05, 90.19 42.48, 0.14 41.93 M158.86 41.12 C119.52 41.71, 83.1 40.47, -0.53 42.24 M1.36 40.59 C1.44 28.01, -0.36 14.15, -1.42 0.52 M0.42 42.73 C0.69 29.67, 0.05 17.19, 0.1 -0.63" stroke="#000000" stroke-width="1" fill="none"></path></g><g transform="translate(495.52676028323356 125.36328125) rotate(0 74 12.5)"><text x="74" y="18" font-family="Virgil, Segoe UI Emoji" font-size="20px" fill="#000000" text-anchor="middle" style="white-space: pre;" direction="ltr">reload event</text></g><g stroke-linecap="round"><g transform="translate(484.56656901283293 114.21161067531602) rotate(0 -69.6046528016874 1.636433505866279)"><path d="M0.02 0.39 C-23.16 1.19, -115.49 3.35, -138.48 3.73 M-1.42 -0.46 C-24.78 0.07, -116.44 1.14, -139.23 1.82" stroke="#000000" stroke-width="1" fill="none"></path></g><g transform="translate(484.56656901283293 114.21161067531602) rotate(0 -69.6046528016874 1.636433505866279)"><path d="M-110.61 -8.39 C-120.51 -3.61, -132.13 -0.63, -140.49 2.11 M-111.79 -9.78 C-118.26 -7.25, -124.86 -2.81, -139.82 0.87" stroke="#000000" stroke-width="1" fill="none"></path></g><g transform="translate(484.56656901283293 114.21161067531602) rotate(0 -69.6046528016874 1.636433505866279)"><path d="M-110.21 12.13 C-120.06 9.69, -131.82 5.46, -140.49 2.11 M-111.39 10.74 C-117.97 8, -124.67 7.18, -139.82 0.87" stroke="#000000" stroke-width="1" fill="none"></path></g></g><g stroke-linecap="round" transform="translate(491.15957278323356 160.23046875) rotate(0 79 21)"><path d="M-1.54 -1.78 C55.21 -0.35, 111.81 0.64, 159.65 0.32 M0.82 -0.46 C33.44 1.68, 68.9 -0.14, 158.49 0.02 M157.66 0.79 C156.55 16.49, 156.21 29.03, 157.55 42.33 M158.62 -0.33 C158.77 13.48, 158.11 26.35, 157.38 41.08 M157.59 41.23 C123.39 43.61, 89.74 41.58, 0.58 42.71 M157.94 41.49 C109.12 42.86, 59.52 42.95, -0.71 42.81 M-0.93 42.96 C1.43 30.08, -1.48 22.68, -1.8 -0.08 M-0.98 41.49 C0.33 33.54, -0.35 23.41, -0.08 0.92" stroke="#000000" stroke-width="1" fill="none"></path></g><g transform="translate(496.15957278323356 168.73046875) rotate(0 74 12.5)"><text x="74" y="18" font-family="Virgil, Segoe UI Emoji" font-size="20px" fill="#000000" text-anchor="middle" style="white-space: pre;" direction="ltr">reload classes</text></g><g stroke-linecap="round" transform="translate(136.50722903323356 10) rotate(0 79 21)"><path d="M1.03 -1.35 C41.62 1.38, 85.67 0.55, 157.68 1.87 M0.91 -0.42 C53.4 -1.12, 105.24 0.04, 158.51 0.57 M158.56 0.75 C157.71 15.89, 156.86 27.01, 157.04 40.83 M157.44 0.66 C158.65 10.05, 158.43 20.32, 157.99 41.8 M158.96 40.76 C112.93 43.08, 70.48 44.71, -1.7 43.04 M157.42 41.2 C96.7 44.07, 33.62 42.56, 0.98 42.01 M-0.24 42.94 C0.21 23.7, 0.86 9.92, 1.69 -0.61 M0.87 42.19 C-1.07 26.05, -1.08 10.37, -0.11 0.68" stroke="#000000" stroke-width="1" fill="none"></path></g><g transform="translate(141.50722903323356 18.5) rotate(0 74 12.5)"><text x="74" y="18" font-family="Virgil, Segoe UI Emoji" font-size="20px" fill="#000000" text-anchor="middle" style="white-space: pre;" direction="ltr">reload scene</text></g><g stroke-linecap="round"><g transform="translate(214.43216723570993 99.92087597772479) rotate(0 0.3237779910044196 -19.66466442957197)"><path d="M-0.62 0.8 C-0.43 -5.76, 0.14 -31.76, 0.01 -38.44 M1.25 0.17 C1.46 -6.79, 0.16 -33.76, -0.45 -40.13" stroke="#000000" stroke-width="1" fill="none"></path></g><g transform="translate(214.43216723570993 99.92087597772479) rotate(0 0.3237779910044196 -19.66466442957197)"><path d="M8.78 -20.63 C7.09 -26.68, 4.04 -28.89, 0.5 -41.11 M8.36 -21.69 C4.48 -26.25, 3.49 -32.72, -0.51 -40.78" stroke="#000000" stroke-width="1" fill="none"></path></g><g transform="translate(214.43216723570993 99.92087597772479) rotate(0 0.3237779910044196 -19.66466442957197)"><path d="M-4.63 -19.73 C-3.56 -25.9, -3.86 -28.29, 0.5 -41.11 M-5.05 -20.8 C-5.25 -25.54, -2.56 -32.25, -0.51 -40.78" stroke="#000000" stroke-width="1" fill="none"></path></g></g><g stroke-linecap="round"><g transform="translate(292.30019778323356 220.9491781945078) rotate(0 97.16368311972815 -16.775681522242422)"><path d="M1.1 -0.68 C33.27 -6.07, 161.86 -27.9, 194.1 -33.32 M0.23 1.57 C32.2 -4.08, 161.17 -29.01, 193.53 -35.12" stroke="#000000" stroke-width="1" fill="none"></path></g><g transform="translate(292.30019778323356 220.9491781945078) rotate(0 97.16368311972815 -16.775681522242422)"><path d="M166.63 -18.55 C179.01 -24.06, 189.38 -33.29, 192.21 -35.63 M166.81 -19.57 C175.5 -23.92, 184.43 -28.76, 192.66 -35.18" stroke="#000000" stroke-width="1" fill="none"></path></g><g transform="translate(292.30019778323356 220.9491781945078) rotate(0 97.16368311972815 -16.775681522242422)"><path d="M162.78 -38.71 C176.5 -36.34, 188.38 -37.66, 192.21 -35.63 M162.95 -39.72 C173.05 -37.68, 183.2 -36.15, 192.66 -35.18" stroke="#000000" stroke-width="1" fill="none"></path></g></g><g stroke-linecap="round"><g transform="translate(10.995510283233557 126.67578125) rotate(0 29.594004653706236 0.49841428561603607)"><path d="M0.3 -0.72 C10.4 -0.72, 50.53 -0.26, 60.18 0.01 M-1 1.52 C9.05 1.71, 49.43 1.87, 59.68 1.44" stroke="#000000" stroke-width="1" fill="none"></path></g><g transform="translate(10.995510283233557 126.67578125) rotate(0 29.594004653706236 0.49841428561603607)"><path d="M30.77 13.43 C39.07 7.23, 48.03 6.37, 61.29 0.41 M31.95 12 C41.46 9.41, 49.44 5.77, 58.84 1.31" stroke="#000000" stroke-width="1" fill="none"></path></g><g transform="translate(10.995510283233557 126.67578125) rotate(0 29.594004653706236 0.49841428561603607)"><path d="M30.46 -6.86 C38.85 -7.61, 47.89 -3.01, 61.29 0.41 M31.64 -8.29 C41.35 -4.42, 49.43 -1.59, 58.84 1.31" stroke="#000000" stroke-width="1" fill="none"></path></g></g><g stroke-linecap="round" transform="translate(131.26894778323356 193.59375) rotate(0 79 21)"><path d="M-0.01 1.68 C42.95 0.11, 84.12 0.32, 156.79 -1.86 M156.47 1.19 C156.77 11.77, 156.47 20.7, 156.3 41.66 M158.12 43.32 C100.2 42.42, 44.13 41.45, 0.83 43.64 M-0.11 40.19 C-0.49 25.29, 1.9 10.4, 1.58 0.04" stroke="#000000" stroke-width="1.5" fill="none" stroke-dasharray="8 9"></path></g><g transform="translate(136.26894778323356 202.09375) rotate(0 74 12.5)"><text x="74" y="18" font-family="Virgil, Segoe UI Emoji" font-size="20px" fill="#000000" text-anchor="middle" style="white-space: pre;" direction="ltr">HTTP Server</text></g><g stroke-linecap="round"><g transform="translate(201.5250065064073 274.6457358010113) rotate(0 0.8144745130065303 -17.282696674536)"><path d="M-0.04 1 C0.15 -4.61, 0.59 -28.09, 0.96 -33.81 M-1.52 0.48 C-0.95 -5.45, 2.63 -29.64, 3.14 -35.56" stroke="#000000" stroke-width="1" fill="none"></path></g><g transform="translate(201.5250065064073 274.6457358010113) rotate(0 0.8144745130065303 -17.282696674536)"><path d="M8.49 -20.18 C6.99 -23.19, 6.53 -28.27, 2.4 -34.66 M7.8 -19.47 C6.41 -23.62, 5.25 -28.48, 2.54 -35.19" stroke="#000000" stroke-width="1" fill="none"></path></g><g transform="translate(201.5250065064073 274.6457358010113) rotate(0 0.8144745130065303 -17.282696674536)"><path d="M-3.25 -21.61 C-1.39 -24.21, 1.52 -28.87, 2.4 -34.66 M-3.94 -20.89 C-1.79 -24.65, 0.58 -29.09, 2.54 -35.19" stroke="#000000" stroke-width="1" fill="none"></path></g></g><g stroke-linecap="round" transform="translate(490.98379153323356 282.4296875) rotate(0 44.5 23.5)"><path d="M11.75 0 M11.75 0 C33.05 -1.95, 51.59 -0.6, 77.25 0 M77.25 0 C83.22 -1.05, 87.95 2.26, 89 11.75 M89 11.75 C87.33 16.9, 89.13 23.34, 89 35.25 M89 35.25 C90.72 42.47, 85.99 46.65, 77.25 47 M77.25 47 C52.57 47.62, 31.89 48.37, 11.75 47 M11.75 47 C5.44 45.26, 0.96 42.95, 0 35.25 M0 35.25 C0.28 25.23, 0.15 18.47, 0 11.75 M0 11.75 C0.42 3.54, 4.13 -1.08, 11.75 0" stroke="#000000" stroke-width="1.5" fill="none" stroke-dasharray="1.5 7"></path></g><g transform="translate(495.98379153323356 293.4296875) rotate(0 39.5 12.5)"><text x="39.5" y="18" font-family="Virgil, Segoe UI Emoji" font-size="20px" fill="#000000" text-anchor="middle" style="white-space: pre;" direction="ltr">7.5-rc-2</text></g><g transform="translate(98.67910403323356 196.47265625) rotate(0 12.1796875 17.72265625)" stroke="none"><path fill="#000000" d="M 2.42,0 Q 2.42,0 2.43,1.42 2.43,2.85 2.39,4.28 2.35,5.71 2.28,7.12 2.20,8.54 2.10,9.96 2.00,11.38 1.84,12.87 1.68,14.35 1.55,15.69 1.43,17.02 1.33,18.26 1.22,19.50 1.13,20.70 1.05,21.91 0.88,23.35 0.71,24.79 0.64,26.54 0.57,28.29 0.52,29.77 0.46,31.26 0.52,32.57 0.57,33.88 -0.76,33.03 -2.10,32.19 -1.01,31.22 0.08,30.26 1.53,29.63 2.98,29.01 4.68,28.13 6.38,27.25 8.21,26.33 10.04,25.41 11.03,24.97 12.01,24.53 13.94,23.77 15.87,23.00 17.49,22.43 19.11,21.87 20.54,21.42 21.97,20.97 23.89,20.48 25.82,19.99 26.33,19.91 26.85,19.84 27.37,19.93 27.88,20.02 28.34,20.28 28.80,20.53 29.15,20.92 29.51,21.31 29.72,21.79 29.93,22.27 29.97,22.79 30.02,23.31 29.90,23.82 29.78,24.33 29.50,24.77 29.22,25.22 28.81,25.55 28.41,25.88 27.92,26.06 27.43,26.25 26.91,26.27 26.38,26.29 25.88,26.14 25.38,25.99 24.95,25.68 24.52,25.38 24.21,24.96 23.90,24.54 23.75,24.04 23.59,23.54 23.60,23.01 23.61,22.49 23.78,22.00 23.96,21.50 24.28,21.09 24.61,20.68 25.05,20.40 25.49,20.11 25.99,19.98 26.50,19.85 27.02,19.89 27.55,19.92 28.03,20.13 28.51,20.33 28.91,20.68 29.30,21.02 29.56,21.48 29.82,21.93 29.92,22.45 30.03,22.96 29.96,23.48 29.90,24.00 29.67,24.47 29.44,24.94 29.07,25.31 28.70,25.69 28.24,25.92 27.77,26.16 27.77,26.16 27.77,26.16 25.15,26.76 22.53,27.37 21.06,27.84 19.58,28.31 17.95,28.87 16.31,29.42 14.56,30.18 12.82,30.93 11.01,31.85 9.20,32.77 7.44,33.67 5.69,34.57 3.93,35.52 2.18,36.47 0.88,37.24 -0.40,38.02 -1.94,37.83 -3.48,37.65 -4.44,35.37 -5.39,33.09 -5.31,32.02 -5.22,30.95 -5.03,29.37 -4.83,27.79 -4.60,26.01 -4.37,24.23 -4.23,22.83 -4.08,21.44 -3.95,20.22 -3.82,18.99 -3.67,17.76 -3.53,16.52 -3.38,15.17 -3.23,13.82 -3.08,12.42 -2.93,11.02 -2.83,9.63 -2.72,8.25 -2.63,6.89 -2.54,5.54 -2.49,4.20 -2.43,2.85 -2.43,1.42 -2.42,0 -2.39,-0.29 -2.35,-0.58 -2.25,-0.85 -2.14,-1.12 -1.98,-1.36 -1.81,-1.60 -1.59,-1.80 -1.37,-1.99 -1.11,-2.13 -0.86,-2.26 -0.57,-2.33 -0.29,-2.40 0.00,-2.40 0.29,-2.40 0.57,-2.33 0.86,-2.26 1.11,-2.13 1.37,-1.99 1.59,-1.80 1.81,-1.60 1.98,-1.36 2.14,-1.12 2.25,-0.85 2.35,-0.58 2.39,-0.29 2.42,0.00 2.42,0.00 L 2.42,0 Z"></path></g><g transform="translate(94.30019778323356 236.7890625) rotate(0 13.587890625 35.931640625)" stroke="none"><path fill="#000000" d="M 2.14,0 Q 2.14,0 2.09,1.90 2.03,3.81 2.03,5.55 2.02,7.28 1.95,9.09 1.89,10.90 1.78,12.74 1.67,14.59 1.64,16.24 1.60,17.89 1.61,19.45 1.61,21.01 1.63,22.52 1.66,24.03 1.69,25.41 1.73,26.80 1.71,28.52 1.69,30.23 1.75,31.31 1.81,32.38 1.87,33.44 1.92,34.50 2.02,36.20 2.12,37.89 2.21,39.31 2.29,40.74 2.24,42.12 2.19,43.50 2.05,45.00 1.92,46.50 1.69,47.94 1.46,49.39 1.16,50.73 0.85,52.07 0.65,53.13 0.44,54.20 0.35,55.38 0.26,56.56 0.29,57.81 0.32,59.06 0.37,60.17 0.41,61.27 0.53,62.36 0.65,63.45 0.90,64.65 1.15,65.85 1.43,66.93 1.72,68.00 3.19,68.07 4.66,68.14 5.76,68.15 6.87,68.16 8.10,68.17 9.33,68.18 10.62,68.19 11.91,68.21 12.99,68.14 14.07,68.07 15.33,67.91 16.59,67.74 17.81,67.45 19.03,67.15 20.25,66.73 21.47,66.30 22.54,65.86 23.60,65.41 24.63,64.89 25.65,64.37 26.89,63.66 28.14,62.95 28.66,62.69 29.18,62.43 29.76,62.35 30.33,62.27 30.91,62.38 31.48,62.49 31.98,62.77 32.49,63.06 32.88,63.49 33.27,63.92 33.50,64.46 33.73,64.99 33.78,65.57 33.82,66.15 33.68,66.71 33.54,67.28 33.23,67.77 32.92,68.26 32.47,68.62 32.01,68.99 31.47,69.19 30.92,69.39 30.34,69.41 29.76,69.42 29.20,69.25 28.65,69.08 28.17,68.74 27.70,68.41 27.36,67.93 27.02,67.46 26.85,66.91 26.68,66.35 26.70,65.77 26.71,65.19 26.91,64.64 27.11,64.10 27.47,63.64 27.84,63.19 28.33,62.88 28.82,62.56 29.38,62.42 29.95,62.28 30.53,62.33 31.11,62.37 31.64,62.60 32.17,62.83 32.61,63.22 33.04,63.61 33.33,64.11 33.61,64.62 33.72,65.19 33.83,65.76 33.76,66.34 33.68,66.91 33.42,67.44 33.16,67.96 32.75,68.37 32.34,68.78 32.34,68.78 32.34,68.78 30.16,70.03 27.98,71.28 26.63,71.83 25.28,72.38 23.91,72.93 22.55,73.48 20.95,73.99 19.36,74.50 17.77,74.81 16.18,75.12 14.74,75.28 13.30,75.45 11.95,75.48 10.60,75.52 9.35,75.54 8.09,75.55 6.92,75.56 5.75,75.57 4.69,75.57 3.63,75.58 2.44,75.57 1.26,75.56 -0.09,75.37 -1.46,75.17 -2.36,74.60 -3.27,74.02 -3.94,73.07 -4.62,72.11 -4.97,70.92 -5.33,69.73 -5.59,68.64 -5.86,67.56 -6.12,66.13 -6.37,64.70 -6.48,63.63 -6.59,62.55 -6.55,61.36 -6.51,60.17 -6.46,59.03 -6.41,57.90 -6.33,56.54 -6.24,55.18 -6.05,54.04 -5.85,52.90 -5.54,51.67 -5.23,50.44 -4.88,49.24 -4.54,48.05 -4.27,46.87 -3.99,45.70 -3.77,44.29 -3.55,42.87 -3.38,41.80 -3.20,40.73 -3.12,39.31 -3.04,37.89 -2.94,36.19 -2.83,34.50 -2.78,33.44 -2.73,32.37 -2.66,31.30 -2.60,30.23 -2.61,28.51 -2.63,26.79 -2.59,25.40 -2.54,24.00 -2.50,22.48 -2.46,20.96 -2.42,19.36 -2.37,17.77 -2.30,16.08 -2.24,14.40 -2.17,12.59 -2.10,10.78 -2.06,9.03 -2.02,7.28 -2.03,5.55 -2.03,3.81 -2.09,1.90 -2.14,0 -2.11,-0.25 -2.08,-0.51 -1.99,-0.75 -1.90,-0.99 -1.75,-1.21 -1.60,-1.42 -1.41,-1.59 -1.21,-1.76 -0.99,-1.88 -0.76,-2.00 -0.50,-2.06 -0.25,-2.13 0.00,-2.13 0.25,-2.13 0.51,-2.06 0.76,-2.00 0.99,-1.88 1.21,-1.76 1.41,-1.59 1.60,-1.42 1.75,-1.21 1.90,-0.99 1.99,-0.75 2.08,-0.51 2.11,-0.25 2.14,0.00 2.14,0.00 L 2.14,0 Z"></path></g></svg>