<svg version="1.1" xmlns="http://www.w3.org/2000/svg" viewBox="0 0 659.1595727832336 408.29296875" width="1318.3191455664671" height="816.5859375" filter="invert(93%) hue-rotate(180deg)">
  <!-- svg-source:excalidraw -->
  
  <defs>
    <style>
      @font-face {
        font-family: "Virgil";
        src: url("https://excalidraw.com/Virgil.woff2");
      }
      @font-face {
        font-family: "Cascadia";
        src: url("https://excalidraw.com/Cascadia.woff2");
      }
    </style>
  </defs>
  <g stroke-linecap="round" transform="translate(73.98769778323356 103.0546875) rotate(0 134 23.5)"><path d="M1.16 -0.19 C76.09 2.28, 153.03 1.74, 269.54 1.26 M-0.78 0.63 C92.97 -0.37, 186.07 -0.48, 268.24 0.34 M269.89 -1.43 C267.42 11.67, 266.51 24.32, 269.67 47.56 M268.12 -0.56 C266.87 18.69, 268.47 36.57, 268.22 47.17 M269.44 47.75 C174.84 45.24, 81.39 48.18, -1.17 47.42 M268.2 46.9 C205.42 47.64, 142.35 48.7, 0.18 46.54 M1.43 46.77 C-1.31 27.38, -0.28 9.88, 1.19 1.15 M-0.83 47.28 C-0.44 31.95, 0.17 15.85, 0.51 -0.28" stroke="#000000" stroke-width="1" fill="none"></path></g><g transform="translate(78.98769778323356 114.0546875) rotate(0 129 12.5)"><text x="129" y="18" font-family="Virgil, Segoe UI Emoji" font-size="20px" fill="#000000" text-anchor="middle" style="white-space: pre;" direction="ltr">KorGE Game</text></g><g stroke-linecap="round" transform="translate(75.18886965823356 151.87890625) rotate(0 134 21)"><path d="M-0.99 1.41 C68.27 1.14, 140.32 1.52, 268.74 -0.07 M267.92 -0.82 C267.77 11.58, 268.19 26.23, 266.86 42.48 M267.46 42.19 C171.6 41.64, 79.03 40.93, 1.43 41.55 M-1.99 42.63 C1.15 30.87, 0.38 20.76, 1.02 1.52" stroke="#000000" stroke-width="1.5" fill="none" stroke-dasharray="8 9"></path></g><g transform="translate(80.18886965823356 160.37890625) rotate(0 129 12.5)"><text x="129" y="18" font-family="Virgil, Segoe UI Emoji" font-size="20px" fill="#000000" text-anchor="middle" style="white-space: pre;" direction="ltr">JVM Agent</text></g><g stroke-linecap="round" transform="translate(75.94863528323356 309.6484375) rotate(0 134 17.5)"><path d="M-0.71 1.23 C86.38 1.71, 172.93 1.21, 268.89 1.04 M0.29 -0.29 C57.78 -0.98, 115.28 -1.86, 268.23 0.43 M266.97 -1.98 C267.16 11.17, 267.66 20.92, 268.71 35.93 M267.16 -0.87 C269.13 12.46, 268.11 26.53, 267.1 35.08 M266.53 36.24 C203.3 34.92, 138.05 35.19, 0.78 36.54 M268.61 35.53 C200.64 36.4, 134.74 35.84, -0.24 34.45 M-1.38 35.72 C-1.16 21.63, 0.59 8.72, 1.79 0.78 M0.04 35.5 C0.5 22.79, 0.15 9.67, 0.81 0.17" stroke="#000000" stroke-width="1" fill="none"></path></g><g transform="translate(80.94863528323356 314.6484375) rotate(0 129 12.5)"><text x="129" y="18" font-family="Virgil, Segoe UI Emoji" font-size="20px" fill="#000000" text-anchor="middle" style="white-space: pre;" direction="ltr">Terminal:</text></g><g stroke-linecap="round" transform="translate(76.73379153323356 350.29296875) rotate(0 134 24)"><path d="M-1.38 -1.01 C81.62 -0.16, 164.63 -0.09, 267.08 -0.39 M269.92 0.47 C267.38 12.11, 268.72 24.22, 268.37 48.32 M266.84 46.79 C179.03 48.21, 89.53 50.16, -0.51 47.41 M-1.79 46.08 C-0.78 29.08, -1.76 11.23, -1.87 0.42" stroke="#000000" stroke-width="1.5" fill="none" stroke-dasharray="8 9"></path></g><g transform="translate(81.73379153323356 361.79296875) rotate(0 129 12.5)"><text x="129" y="18" font-family="Virgil, Segoe UI Emoji" font-size="20px" fill="#000000" text-anchor="middle" style="white-space: pre;" direction="ltr">./gradlew -t compileKotlin</text></g><g stroke-linecap="round" transform="translate(123.15957278323356 195.6875) rotate(0 79 21)"><path d="M-0.37 0.39 C62.5 -0.42, 125.39 1.08, 158.07 -1.49 M158.87 0.05 C157.3 10.81, 158.72 19.49, 159.69 43.68 M159.08 40.93 C113 42.13, 69.26 42.41, 1.82 43.17 M-1.01 43.15 C-0.16 31.32, -0.52 18.57, 1.85 0.77" stroke="#000000" stroke-width="1.5" fill="none" stroke-dasharray="8 9"></path></g><g transform="translate(128.15957278323356 204.1875) rotate(0 74 12.5)"><text x="74" y="18" font-family="Virgil, Segoe UI Emoji" font-size="20px" fill="#000000" text-anchor="middle" style="white-space: pre;" direction="ltr">5s timer</text></g><g stroke-linecap="round" transform="translate(490.52676028323356 116.86328125) rotate(0 79 21)"><path d="M1.76 -2 C57.94 0.6, 118.19 -0.64, 157.27 -1.48 M0.84 0.22 C42.45 0.23, 86.22 0.2, 157.29 -0.98 M157.89 0.04 C158.22 14.05, 157.04 27.97, 156.24 41.56 M158.86 -0.26 C157.92 15.17, 157.52 30.19, 157.94 41.91 M158.65 43.74 C122.68 40.05, 90.19 42.48, 0.14 41.93 M158.86 41.12 C119.52 41.71, 83.1 40.47, -0.53 42.24 M1.36 40.59 C1.44 28.01, -0.36 14.15, -1.42 0.52 M0.42 42.73 C0.69 29.67, 0.05 17.19, 0.1 -0.63" stroke="#000000" stroke-width="1" fill="none"></path></g><g transform="translate(495.52676028323356 125.36328125) rotate(0 74 12.5)"><text x="74" y="18" font-family="Virgil, Segoe UI Emoji" font-size="20px" fill="#000000" text-anchor="middle" style="white-space: pre;" direction="ltr">reload event</text></g><g stroke-linecap="round"><g transform="translate(484.56656901283293 114.21161067531602) rotate(0 -69.6046528016874 1.636433505866279)"><path d="M0.02 0.39 C-23.16 1.19, -115.49 3.35, -138.48 3.73 M-1.42 -0.46 C-24.78 0.07, -116.44 1.14, -139.23 1.82" stroke="#000000" stroke-width="1" fill="none"></path></g><g transform="translate(484.56656901283293 114.21161067531602) rotate(0 -69.6046528016874 1.636433505866279)"><path d="M-110.61 -8.39 C-120.51 -3.61, -132.13 -0.63, -140.49 2.11 M-111.79 -9.78 C-118.26 -7.25, -124.86 -2.81, -139.82 0.87" stroke="#000000" stroke-width="1" fill="none"></path></g><g transform="translate(484.56656901283293 114.21161067531602) rotate(0 -69.6046528016874 1.636433505866279)"><path d="M-110.21 12.13 C-120.06 9.69, -131.82 5.46, -140.49 2.11 M-111.39 10.74 C-117.97 8, -124.67 7.18, -139.82 0.87" stroke="#000000" stroke-width="1" fill="none"></path></g></g><g stroke-linecap="round" transform="translate(491.15957278323356 160.23046875) rotate(0 79 21)"><path d="M-1.54 -1.78 C55.21 -0.35, 111.81 0.64, 159.65 0.32 M0.82 -0.46 C33.44 1.68, 68.9 -0.14, 158.49 0.02 M157.66 0.79 C156.55 16.49, 156.21 29.03, 157.55 42.33 M158.62 -0.33 C158.77 13.48, 158.11 26.35, 157.38 41.08 M157.59 41.23 C123.39 43.61, 89.74 41.58, 0.58 42.71 M157.94 41.49 C109.12 42.86, 59.52 42.95, -0.71 42.81 M-0.93 42.96 C1.43 30.08, -1.48 22.68, -1.8 -0.08 M-0.98 41.49 C0.33 33.54, -0.35 23.41, -0.08 0.92" stroke="#000000" stroke-width="1" fill="none"></path></g><g transform="translate(496.15957278323356 168.73046875) rotate(0 74 12.5)"><text x="74" y="18" font-family="Virgil, Segoe UI Emoji" font-size="20px" fill="#000000" text-anchor="middle" style="white-space: pre;" direction="ltr">reload classes</text></g><g stroke-linecap="round" transform="translate(136.50722903323356 10) rotate(0 79 21)"><path d="M1.03 -1.35 C41.62 1.38, 85.67 0.55, 157.68 1.87 M0.91 -0.42 C53.4 -1.12, 105.24 0.04, 158.51 0.57 M158.56 0.75 C157.71 15.89, 156.86 27.01, 157.04 40.83 M157.44 0.66 C158.65 10.05, 158.43 20.32, 157.99 41.8 M158.96 40.76 C112.93 43.08, 70.48 44.71, -1.7 43.04 M157.42 41.2 C96.7 44.07, 33.62 42.56, 0.98 42.01 M-0.24 42.94 C0.21 23.7, 0.86 9.92, 1.69 -0.61 M0.87 42.19 C-1.07 26.05, -1.08 10.37, -0.11 0.68" stroke="#000000" stroke-width="1" fill="none"></path></g><g transform="translate(141.50722903323356 18.5) rotate(0 74 12.5)"><text x="74" y="18" font-family="Virgil, Segoe UI Emoji" font-size="20px" fill="#000000" text-anchor="middle" style="white-space: pre;" direction="ltr">reload scene</text></g><g stroke-linecap="round"><g transform="translate(214.43216723570993 99.92087597772479) rotate(0 0.3237779910044196 -19.66466442957197)"><path d="M-0.62 0.8 C-0.43 -5.76, 0.14 -31.76, 0.01 -38.44 M1.25 0.17 C1.46 -6.79, 0.16 -33.76, -0.45 -40.13" stroke="#000000" stroke-width="1" fill="none"></path></g><g transform="translate(214.43216723570993 99.92087597772479) rotate(0 0.3237779910044196 -19.66466442957197)"><path d="M8.78 -20.63 C7.09 -26.68, 4.04 -28.89, 0.5 -41.11 M8.36 -21.69 C4.48 -26.25, 3.49 -32.72, -0.51 -40.78" stroke="#000000" stroke-width="1" fill="none"></path></g><g transform="translate(214.43216723570993 99.92087597772479) rotate(0 0.3237779910044196 -19.66466442957197)"><path d="M-4.63 -19.73 C-3.56 -25.9, -3.86 -28.29, 0.5 -41.11 M-5.05 -20.8 C-5.25 -25.54, -2.56 -32.25, -0.51 -40.78" stroke="#000000" stroke-width="1" fill="none"></path></g></g><g stroke-linecap="round"><g transform="translate(285.84707278323356 222.12890625) rotate(0 100.39024561972815 -17.35973289149814)"><path d="M1.1 -0.68 C34.35 -6.26, 167.24 -28.88, 200.56 -34.49 M0.23 1.57 C33.27 -4.27, 166.54 -29.98, 199.98 -36.29" stroke="#000000" stroke-width="1" fill="none"></path></g><g transform="translate(285.84707278323356 222.12890625) rotate(0 100.39024561972815 -17.35973289149814)"><path d="M173.08 -19.73 C185.46 -25.24, 195.83 -34.46, 198.66 -36.8 M173.26 -20.74 C181.95 -25.09, 190.88 -29.93, 199.11 -36.34" stroke="#000000" stroke-width="1" fill="none"></path></g><g transform="translate(285.84707278323356 222.12890625) rotate(0 100.39024561972815 -17.35973289149814)"><path d="M169.23 -39.89 C182.96 -37.52, 194.83 -38.83, 198.66 -36.8 M169.41 -40.9 C179.5 -38.85, 189.65 -37.32, 199.11 -36.34" stroke="#000000" stroke-width="1" fill="none"></path></g></g><g stroke-linecap="round"><g transform="translate(10.995510283233557 126.67578125) rotate(0 29.594004653706236 0.49841428561603607)"><path d="M0.3 -0.72 C10.4 -0.72, 50.53 -0.26, 60.18 0.01 M-1 1.52 C9.05 1.71, 49.43 1.87, 59.68 1.44" stroke="#000000" stroke-width="1" fill="none"></path></g><g transform="translate(10.995510283233557 126.67578125) rotate(0 29.594004653706236 0.49841428561603607)"><path d="M30.77 13.43 C39.07 7.23, 48.03 6.37, 61.29 0.41 M31.95 12 C41.46 9.41, 49.44 5.77, 58.84 1.31" stroke="#000000" stroke-width="1" fill="none"></path></g><g transform="translate(10.995510283233557 126.67578125) rotate(0 29.594004653706236 0.49841428561603607)"><path d="M30.46 -6.86 C38.85 -7.61, 47.89 -3.01, 61.29 0.41 M31.64 -8.29 C41.35 -4.42, 49.43 -1.59, 58.84 1.31" stroke="#000000" stroke-width="1" fill="none"></path></g></g><g stroke-linecap="round"><g transform="translate(12.114650908233557 330.4609375) rotate(0 29.91350774876304 0.3677491898881442)"><path d="M-0.82 -0.74 C9.1 -0.56, 48.31 1.02, 58.42 1.04 M0.95 1.48 C11.35 1.33, 50.92 -0.45, 60.65 -0.65" stroke="#000000" stroke-width="1" fill="none"></path></g><g transform="translate(12.114650908233557 330.4609375) rotate(0 29.91350774876304 0.3677491898881442)"><path d="M31.9 8.92 C40.14 9.2, 42.99 6.71, 60.04 1.16 M32.19 11.29 C40.21 6.4, 48.02 4.71, 61.57 -0.4" stroke="#000000" stroke-width="1" fill="none"></path></g><g transform="translate(12.114650908233557 330.4609375) rotate(0 29.91350774876304 0.3677491898881442)"><path d="M31.2 -11.36 C39.57 -6.93, 42.57 -5.27, 60.04 1.16 M31.49 -8.99 C39.59 -8.34, 47.59 -4.48, 61.57 -0.4" stroke="#000000" stroke-width="1" fill="none"></path></g></g></svg>