<?xml version="1.0" encoding="UTF-8" standalone="no"?>
<!DOCTYPE svg PUBLIC "-//W3C//DTD SVG 1.1//EN" "http://www.w3.org/Graphics/SVG/1.1/DTD/svg11.dtd">
<svg width="100%" height="100%" viewBox="0 0 2010 512" version="1.1" xmlns="http://www.w3.org/2000/svg" xmlns:xlink="http://www.w3.org/1999/xlink" xml:space="preserve" xmlns:serif="http://www.serif.com/" style="fill-rule:evenodd;clip-rule:evenodd;stroke-linecap:round;stroke-linejoin:round;stroke-miterlimit:1.5;">
    <!--
    <rect x="0" y="0" width="2010" height="512" style="fill:rgb(77,77,77);"/>
    -->
    <g id="Logo">
        <g transform="matrix(1,0,0,1,15,15)">
            <path transform="matrix(1,0,0,1,256,256)" d="M-120,120L120,-120L-120,120ZM0,0L30,190L0,0ZM0,0L190,15L0,0Z" style="fill-rule:nonzero;stroke:black;stroke-width:90px;"/>
            <g transform="matrix(0.866025,-0.5,0.5,0.866025,120,200)">
                <ellipse cx="0" cy="0" rx="38" ry="70" style="stroke:black;stroke-width:60px;"/>
            </g>
            <g transform="matrix(0.984808,-0.173648,0.173648,0.984808,240,100)">
                <ellipse cx="0" cy="0" rx="38" ry="70" style="stroke:black;stroke-width:60px;"/>
            </g>
        </g>
        <g>
            <path transform="matrix(1,0,0,1,256,256)" d="M-120,120L120,-120L-120,120ZM0,0L30,190L0,0ZM0,0L190,15L0,0Z" style="fill:none;fill-rule:nonzero;stroke:white;stroke-width:90px;"/>
            <g transform="matrix(0.866025,-0.5,0.5,0.866025,120,200)">
                <ellipse cx="0" cy="0" rx="38" ry="70" style="fill:white;stroke:white;stroke-width:60px;"/>
            </g>
            <g transform="matrix(0.984808,-0.173648,0.173648,0.984808,240,100)">
                <ellipse cx="0" cy="0" rx="38" ry="70" style="fill:white;stroke:white;stroke-width:60px;"/>
            </g>
        </g>
        <g transform="matrix(1,0,0,1,256,256)">
            <path d="M-120,120L120,-120L-120,120Z" style="fill:none;fill-rule:nonzero;stroke:rgb(88,0,195);stroke-width:50px;"/>
            <path d="M0,0L30,190L0,0ZM0,0L190,15L0,0Z" style="fill:none;fill-rule:nonzero;stroke:rgb(71,0,156);stroke-width:50px;"/>
        </g>
        <g>
            <g transform="matrix(0.866025,-0.5,0.5,0.866025,120,200)">
                <circle cx="-17" cy="0" r="24" style="fill:rgb(88,0,195);"/>
                <ellipse cx="0" cy="0" rx="38" ry="70" style="fill:none;stroke:rgb(71,0,156);stroke-width:30px;"/>
            </g>
            <g transform="matrix(0.984808,-0.173648,0.173648,0.984808,240,100)">
                <circle cx="-19" cy="12" r="24" style="fill:rgb(88,0,195);"/>
                <ellipse cx="0" cy="0" rx="38" ry="70" style="fill:none;stroke:rgb(71,0,156);stroke-width:30px;"/>
            </g>
        </g>
    </g>

    <path 
    id="Text" 
    transform="matrix(1,0,0,1,-1100,0)" 
    d="M2077.92,430.71C2038.38,430.71 2008.03,420.513 1986.85,400.117C1965.67,379.722 1954.14,350.698 1952.26,313.045C1951.94,308.513 1951.78,300.669 1951.78,289.512C1951.78,278.356 1951.94,270.512 1952.26,265.979C1954.14,229.024 1965.98,200.174 1987.79,179.43C2009.6,158.687 2039.64,148.315 2077.92,148.315C2116.2,148.315 2146.24,158.687 2168.05,179.43C2189.86,200.174 2201.7,229.024 2203.59,265.979C2204.21,275.044 2204.53,282.888 2204.53,289.512C2204.53,296.137 2204.21,303.981 2203.59,313.045C2201.7,350.698 2190.17,379.722 2168.99,400.117C2147.81,420.513 2117.46,430.71 2077.92,430.71ZM2562.23,430.71C2516.73,430.71 2481.12,418.421 2455.39,393.842C2429.66,369.263 2416.01,334.138 2414.44,288.467C2414.13,278.705 2413.97,262.842 2413.97,240.878C2413.97,218.914 2414.13,202.876 2414.44,192.766C2415.7,148.838 2429.43,114.758 2455.62,90.528C2481.83,66.298 2517.36,54.183 2562.23,54.183C2592.35,54.183 2618.63,59.587 2641.07,70.394C2663.5,81.202 2680.6,95.06 2692.37,111.969C2704.13,128.878 2710.33,146.223 2710.96,164.003C2710.96,167.141 2709.94,169.843 2707.9,172.109C2705.86,174.375 2703.43,175.508 2700.6,175.508L2627.65,175.508C2624.51,175.508 2622.08,174.898 2620.36,173.678C2618.63,172.458 2616.98,170.627 2615.41,168.187C2611.65,158.425 2605.61,150.058 2597.29,143.085C2588.98,136.112 2577.29,132.626 2562.23,132.626C2525.83,132.626 2507.01,153.544 2505.75,195.381C2505.44,205.142 2505.28,220.134 2505.28,240.355C2505.28,260.576 2505.44,275.741 2505.75,285.852C2507.01,330.129 2526.14,352.267 2563.17,352.267C2581.37,352.267 2595.8,347.212 2606.47,337.101C2617.14,326.991 2622.47,311.651 2622.47,291.081L2622.47,281.668L2580.59,281.668C2577.13,281.668 2574.23,280.361 2571.88,277.746C2569.53,275.131 2568.35,271.906 2568.35,268.071L2568.35,227.281C2568.35,223.446 2569.53,220.221 2571.88,217.606C2574.23,214.991 2577.13,213.684 2580.59,213.684L2700.13,213.684C2703.58,213.684 2706.49,214.991 2708.84,217.606C2711.19,220.221 2712.37,223.446 2712.37,227.281L2712.37,287.944C2712.37,317.578 2706.17,343.115 2693.78,364.556C2681.39,385.998 2663.89,402.384 2641.3,413.714C2618.71,425.045 2592.35,430.71 2562.23,430.71ZM1701.5,425.481C1698.36,425.481 1695.62,424.173 1693.26,421.559C1690.91,418.944 1689.73,415.893 1689.73,412.407L1689.73,73.009C1689.73,69.174 1690.83,65.949 1693.03,63.334C1695.22,60.72 1698.05,59.412 1701.5,59.412L1764.57,59.412C1768.02,59.412 1770.84,60.72 1773.04,63.334C1775.24,65.949 1776.33,69.174 1776.33,73.009L1776.33,187.013L1859.64,69.871C1863.09,62.899 1869.21,59.412 1878,59.412L1950.01,59.412C1952.52,59.412 1954.79,60.545 1956.83,62.811C1958.87,65.078 1959.89,67.605 1959.89,70.394C1959.89,73.183 1959.26,75.275 1958.01,76.67L1848.34,234.602L1966.95,408.223C1968.21,409.618 1968.83,411.71 1968.83,414.499C1968.83,417.288 1967.81,419.815 1965.77,422.081C1963.73,424.348 1961.3,425.481 1958.48,425.481L1884.58,425.481C1879.56,425.481 1875.49,424.348 1872.35,422.081C1869.21,419.815 1867.01,417.462 1865.76,415.022L1776.33,287.421L1776.33,412.407C1776.33,415.893 1775.24,418.944 1773.04,421.559C1770.84,424.173 1768.02,425.481 1764.57,425.481L1701.5,425.481ZM2237.47,425.481C2234.34,425.481 2231.59,424.173 2229.24,421.559C2226.89,418.944 2225.71,415.893 2225.71,412.407L2225.71,167.141C2225.71,163.306 2226.81,160.081 2229,157.466C2231.2,154.852 2234.02,153.544 2237.47,153.544L2294.89,153.544C2298.35,153.544 2301.25,154.852 2303.6,157.466C2305.95,160.081 2307.13,163.306 2307.13,167.141L2307.13,187.013C2315.92,176.206 2326.19,167.925 2337.96,162.173C2349.73,156.42 2362.83,153.544 2377.26,153.544L2398.44,153.544C2401.89,153.544 2404.72,154.764 2406.91,157.205C2409.11,159.645 2410.21,162.783 2410.21,166.618L2410.21,223.62C2410.21,227.106 2409.11,230.157 2406.91,232.772C2404.72,235.387 2401.89,236.694 2398.44,236.694L2350.9,236.694C2338.35,236.694 2328.7,240.529 2321.96,248.199C2315.21,255.869 2311.84,266.677 2311.84,280.622L2311.84,412.407C2311.84,416.242 2310.66,419.38 2308.31,421.82C2305.95,424.26 2303.05,425.481 2299.6,425.481L2237.47,425.481ZM2752.85,425.481C2749.71,425.481 2746.96,424.173 2744.61,421.559C2742.26,418.944 2741.08,415.893 2741.08,412.407L2741.08,73.009C2741.08,69.174 2742.18,65.949 2744.37,63.334C2746.57,60.72 2749.39,59.412 2752.85,59.412L2975,59.412C2978.45,59.412 2981.35,60.72 2983.7,63.334C2986.06,65.949 2987.24,69.174 2987.24,73.009L2987.24,124.782C2987.24,128.617 2986.06,131.754 2983.7,134.195C2981.35,136.635 2978.45,137.856 2975,137.856L2826.27,137.856L2826.27,204.271L2964.64,204.271C2968.1,204.271 2971,205.578 2973.35,208.193C2975.7,210.808 2976.88,214.033 2976.88,217.868L2976.88,265.456C2976.88,269.291 2975.7,272.516 2973.35,275.131C2971,277.746 2968.1,279.053 2964.64,279.053L2826.27,279.053L2826.27,347.037L2978.76,347.037C2982.21,347.037 2985.12,348.345 2987.47,350.96C2989.82,353.574 2991,356.799 2991,360.634L2991,412.407C2991,416.242 2989.82,419.38 2987.47,421.82C2985.12,424.26 2982.21,425.481 2978.76,425.481L2752.85,425.481ZM2077.92,364.818C2090.79,364.818 2100.36,360.373 2106.63,351.483C2112.91,342.592 2116.51,328.908 2117.46,310.431C2117.77,306.944 2117.93,299.972 2117.93,289.512C2117.93,279.053 2117.77,272.081 2117.46,268.594C2116.51,250.465 2112.91,236.868 2106.63,227.804C2100.36,218.739 2090.79,214.207 2077.92,214.207C2065.06,214.207 2055.49,218.739 2049.21,227.804C2042.93,236.868 2039.33,250.465 2038.38,268.594L2037.91,289.512L2038.38,310.431C2039.33,328.908 2042.93,342.592 2049.21,351.483C2055.49,360.373 2065.06,364.818 2077.92,364.818Z" 
    style="
    fill:rgb(71,0,156);
    filter: 
        drop-shadow(-7px -7px 0px #fff) 
        drop-shadow(0px -7px 0px #fff) 
        drop-shadow(0px +7px 0px #fff) 
        drop-shadow(+10px 0px 0px #fff) 
        drop-shadow(-10px 0px 0px #fff)
        drop-shadow(+7px +7px 0px #fff)
        drop-shadow(20px 20px 0px #000) 
    ;
    "/>
</svg>
