<svg fill="none" stroke-linecap="round" stroke-linejoin="round" stroke-miterlimit="1.5" viewBox="0 0 512 512" xmlns="http://www.w3.org/2000/svg"><g fill="#000" stroke="#000" transform="translate(15 15)"><path d="m-120 120 240-240zm120-120 30 190zm0 0 190 15z" stroke-width="90" transform="translate(256 256)"/><g stroke-width="60"><ellipse rx="38" ry="70" transform="matrix(.8660254 -.5 .5 .8660254 120 200)"/><ellipse rx="38" ry="70" transform="matrix(.98480775 -.17364818 .17364818 .98480775 240 100)"/></g></g><g fill="#fff" stroke="#fff" stroke-width="60"><path d="m-120 120 240-240zm120-120 30 190zm0 0 190 15z" fill="none" stroke-width="90" transform="translate(256 256)"/><ellipse rx="38" ry="70" transform="matrix(.8660254 -.5 .5 .8660254 120 200)"/><ellipse rx="38" ry="70" transform="matrix(.98480775 -.17364818 .17364818 .98480775 240 100)"/></g><g stroke-width="50" transform="translate(256 256)"><path d="m-120 120 240-240z" stroke="#5800c3"/><path d="m0 0 30 190zm0 0 190 15z" stroke="#47009c"/></g><g stroke-width="30"><g transform="matrix(.8660254 -.5 .5 .8660254 120 200)"><ellipse cx="-17" fill="#5800c3" rx="24" ry="24"/><ellipse rx="38" ry="70" stroke="#47009c"/></g><g transform="matrix(.98480775 -.17364818 .17364818 .98480775 240 100)"><ellipse cx="-19" cy="12" fill="#5800c3" rx="24" ry="24"/><ellipse rx="38" ry="70" stroke="#47009c"/></g></g></svg>